<svg width="97" height="96" viewBox="0 0 97 96" fill="none" xmlns="http://www.w3.org/2000/svg">
<path d="M0.5 48C0.5 21.4903 21.9903 0 48.5 0C75.0097 0 96.5 21.4903 96.5 48C96.5 74.5097 75.0097 96 48.5 96C21.9903 96 0.5 74.5097 0.5 48Z" fill="#96BB7C"/>
<path d="M29 40.7999C28.9995 37.9006 30.1648 35.1228 32.2336 33.0916C34.3025 31.0603 37.1012 29.9462 40 29.9999C43.4346 29.9817 46.712 31.4383 49 33.9999C51.288 31.4383 54.5654 29.9817 58 29.9999C60.8988 29.9462 63.6975 31.0603 65.7664 33.0916C67.8352 35.1228 69.0005 37.9006 69 40.7999C69 51.5119 56.242 59.5999 49 65.9999C41.774 59.5459 29 51.5199 29 40.7999Z" fill="white"/>
</svg>
