<svg width="70" height="77" viewBox="0 0 70 77" fill="none" xmlns="http://www.w3.org/2000/svg">
<path d="M0 10.353C0 4.83018 4.47715 0.353027 10 0.353027H60C65.5229 0.353027 70 4.83018 70 10.353V66.353C70 71.8759 65.5229 76.353 60 76.353H10C4.47715 76.353 0 71.8759 0 66.353V10.353Z" fill="#FF7171"/>
<g clip-path="url(#clip0_2_126)">
<g clip-path="url(#clip1_2_126)">
<g clip-path="url(#clip2_2_126)">
<g clip-path="url(#clip3_2_126)">
<path d="M29.6705 38.6881C30.0644 38.6066 30.4761 38.4278 30.8644 38.1475C31.981 37.3398 32.4766 36.0135 31.9702 35.1838C31.4196 34.2812 29.9134 34.3419 28.756 35.3691C27.6492 36.3247 27.4131 37.3232 27.4131 38.3726C27.4131 39.1141 27.6503 40.4382 29.099 41.588C29.7831 41.0594 30.5986 40.6246 31.5243 40.3102L31.5365 40.3057C30.8253 40.0093 29.8981 39.4243 29.6705 38.6881ZM29.4918 36.1359C29.4918 35.8259 29.7389 35.5766 30.0436 35.5766C30.348 35.5766 30.5953 35.8271 30.5953 36.1371C30.5953 36.4472 30.348 36.6965 30.0436 36.6965C29.7389 36.6965 29.4918 36.446 29.4918 36.1359Z" fill="white"/>
</g>
</g>
<g clip-path="url(#clip4_2_126)">
<g clip-path="url(#clip5_2_126)">
<path d="M42.6074 38.3733C42.6041 37.3228 42.3691 36.3243 41.2613 35.3687C40.1048 34.3425 38.5976 34.2796 38.047 35.1834C37.5416 36.0131 38.0359 37.3395 39.1525 38.1471C39.541 38.4274 39.9526 38.6061 40.3465 38.6878C40.2097 39.1302 39.7937 39.5804 39.1593 39.96C38.2869 40.4807 37.8157 40.5451 32.2341 42.3985C30.1686 43.1003 28.9395 44.4949 28.9395 46.1292C28.9395 47.2933 29.5341 48.1914 30.3605 48.8491C30.8803 48.3139 31.5292 47.8495 32.2872 47.4775C31.4144 47.0362 31.1451 46.7018 31.1451 46.1292C31.1451 45.184 33.0344 44.6436 33.906 44.356V46.7483L36.1128 45.7639V44.3571C36.9858 44.6462 38.8702 45.1859 38.8702 46.1292C38.8702 47.6984 34.3767 48.6238 32.4649 49.9426C31.537 50.5859 31.038 51.4036 31.038 52.3646C31.038 52.9163 31.1021 53.6004 32.0709 54.2801C32.3456 54.4995 32.7272 54.179 32.5488 53.8706C31.9087 52.5896 32.5884 51.9497 33.9081 51.3957V53.2472C33.9081 53.8563 34.4025 54.3506 35.0115 54.3506C35.6206 54.3506 36.115 53.8563 36.115 53.2472V51.3968C37.3827 51.9286 38.1806 52.6801 37.471 53.8706C37.2952 54.173 37.6697 54.5022 37.9477 54.2801C38.8856 53.5694 38.9596 52.9603 38.9596 52.3789C38.9596 51.4841 38.4697 50.6157 37.5406 49.9503C39.4186 49.2717 41.0803 48.1297 41.0803 46.1314C41.0803 44.751 40.2032 43.5417 38.6871 42.7759C39.3953 42.521 39.7517 42.35 40.2251 42.0676C42.2985 40.8284 42.6074 39.2208 42.6074 38.3733ZM39.9748 36.6961C39.6701 36.6961 39.4231 36.4456 39.4231 36.1356C39.4231 35.8255 39.6701 35.575 39.9748 35.575C40.2792 35.575 40.5265 35.8255 40.5265 36.1356C40.5265 36.4456 40.2792 36.6961 39.9748 36.6961Z" fill="white"/>
</g>
</g>
<g clip-path="url(#clip6_2_126)">
<g clip-path="url(#clip7_2_126)">
<path d="M50.4476 24.562H42.8908C41.4084 24.562 40.296 25.2173 39.339 26.1744C38.2993 27.214 37.7587 29.5252 36.1032 29.5252V26.4606C36.7601 26.0784 37.2066 25.3747 37.2066 24.5599C37.2066 23.3411 36.2186 22.353 34.9998 22.353C33.7809 22.353 32.793 23.3411 32.793 24.5599C32.793 25.3747 33.2394 26.0783 33.8964 26.4606V39.6109C34.5774 39.3936 35.3248 39.1543 36.1032 38.9043V33.3772C36.5819 33.137 36.9682 32.7487 37.2051 32.2681C37.5889 32.9241 38.3185 33.3893 39.1318 33.3893C39.9567 33.3893 40.6673 32.9313 41.0459 32.2611C42.3386 33.5538 44.7413 33.5787 46.0339 32.286L44.1588 30.4109L45.019 30.7672C46.708 31.4669 48.6444 30.6648 49.3441 28.9757L46.6803 27.8723C49.2609 27.8722 50.4476 26.2529 50.4476 24.562Z" fill="white"/>
</g>
</g>
<g clip-path="url(#clip8_2_126)">
<g clip-path="url(#clip9_2_126)">
<path d="M30.6604 26.1744C29.7034 25.2173 28.5909 24.562 27.1085 24.562H19.5518C19.5518 26.2529 20.7384 27.8722 23.319 27.8722L20.6552 28.9757C21.3549 30.6647 23.2913 31.4668 24.9803 30.7672L25.8405 30.4109L23.9654 32.286C25.2581 33.5787 27.6607 33.5538 28.9534 32.261C29.332 32.9313 30.0427 33.3893 30.8675 33.3893C30.8757 33.3893 30.8838 33.3892 30.8919 33.3892C31.9701 33.3769 32.7942 32.403 32.7942 31.3248V29.1049C31.9245 28.3913 31.4264 26.9404 30.6604 26.1744Z" fill="white"/>
</g>
</g>
</g>
</g>
<defs>
<clipPath id="clip0_2_126">
<rect width="32" height="32" fill="white" transform="translate(19 22.353)"/>
</clipPath>
<clipPath id="clip1_2_126">
<rect width="32" height="32" fill="white" transform="translate(19 22.353)"/>
</clipPath>
<clipPath id="clip2_2_126">
<rect width="4.75568" height="7.03818" fill="white" transform="translate(27.4131 34.5498)"/>
</clipPath>
<clipPath id="clip3_2_126">
<rect width="4.75568" height="7.03818" fill="white" transform="translate(27.4131 34.5498)"/>
</clipPath>
<clipPath id="clip4_2_126">
<rect width="13.668" height="19.8036" fill="white" transform="translate(28.9395 34.5493)"/>
</clipPath>
<clipPath id="clip5_2_126">
<rect width="13.668" height="19.8036" fill="white" transform="translate(28.9395 34.5493)"/>
</clipPath>
<clipPath id="clip6_2_126">
<rect width="17.6546" height="17.2579" fill="white" transform="translate(32.793 22.353)"/>
</clipPath>
<clipPath id="clip7_2_126">
<rect width="17.6546" height="17.2579" fill="white" transform="translate(32.793 22.353)"/>
</clipPath>
<clipPath id="clip8_2_126">
<rect width="13.2425" height="8.8273" fill="white" transform="translate(19.5518 24.562)"/>
</clipPath>
<clipPath id="clip9_2_126">
<rect width="13.2425" height="8.8273" fill="white" transform="translate(19.5518 24.562)"/>
</clipPath>
</defs>
</svg>
