<svg width="70" height="77" viewBox="0 0 70 77" fill="none" xmlns="http://www.w3.org/2000/svg">
<path d="M0 10.353C0 4.83018 4.47715 0.353027 10 0.353027H60C65.5229 0.353027 70 4.83018 70 10.353V66.353C70 71.8759 65.5229 76.353 60 76.353H10C4.47715 76.353 0 71.8759 0 66.353V10.353Z" fill="#FF7171"/>
<g clip-path="url(#clip0_2_134)">
<g clip-path="url(#clip1_2_134)">
<path d="M25.3481 54.3528H44.6513C45.8 54.3528 46.7562 53.4743 46.7562 52.3946V28.9813C46.7562 27.9014 45.8 27.0137 44.6513 27.0137H41.4692V28.8014C41.4739 29.1118 41.229 29.3686 40.919 29.3789H29.0426C28.7263 29.3713 28.4709 29.1177 28.4606 28.8014V27.0137H25.3481C24.1994 27.0137 23.2432 27.9014 23.2432 28.9813V52.3946C23.2432 53.4743 24.1994 54.3528 25.3481 54.3528ZM29.6432 36.405C29.6432 36.0976 29.8923 35.8485 30.1997 35.8485H33.0519V32.9963C33.0519 32.6889 33.301 32.4398 33.6084 32.4398H36.391C36.6983 32.4398 36.9475 32.6889 36.9475 32.9963V35.8485H39.7997C40.107 35.8485 40.3562 36.0976 40.3562 36.405V39.1876C40.3562 39.4949 40.107 39.7441 39.7997 39.7441H36.9475V42.5963C36.9475 42.9036 36.6983 43.1528 36.391 43.1528H33.6084C33.301 43.1528 33.0519 42.9036 33.0519 42.5963V39.7441H30.1997C29.8923 39.7441 29.6432 39.4949 29.6432 39.1876V36.405ZM29.8698 46.005H40.1296C40.4372 46.005 40.6861 46.2542 40.6861 46.5615C40.6861 46.8688 40.4372 47.118 40.1296 47.118H29.8698C29.5622 47.118 29.3133 46.8688 29.3133 46.5615C29.3133 46.2542 29.5622 46.005 29.8698 46.005ZM27.7828 48.7876H42.2165C42.5241 48.7876 42.7731 49.0368 42.7731 49.3441C42.7731 49.6514 42.5241 49.9006 42.2165 49.9006H27.7828C27.4752 49.9006 27.2263 49.6514 27.2263 49.3441C27.2263 49.0368 27.4752 48.7876 27.7828 48.7876Z" fill="white"/>
<path d="M40.3568 24.5096H37.7525C37.4905 24.5093 37.2639 24.3264 37.2087 24.0701C36.9935 23.0756 36.0489 22.353 34.9625 22.353H34.9557C33.8984 22.3519 32.9748 23.0674 32.7117 24.0913C32.6484 24.3373 32.4267 24.5093 32.1726 24.5096H29.5742V28.2661H40.3568V24.5096Z" fill="white"/>
<path d="M34.1655 39.188V42.0402H35.8351V39.188C35.8351 38.8807 36.0843 38.6315 36.3916 38.6315H39.2438V36.9619H36.3916C36.0843 36.9619 35.8351 36.7127 35.8351 36.4054V33.5532H34.1655V36.4054C34.1655 36.7127 33.9163 36.9619 33.609 36.9619H30.7568V38.6315H33.609C33.9163 38.6315 34.1655 38.8807 34.1655 39.188Z" fill="white"/>
</g>
</g>
<defs>
<clipPath id="clip0_2_134">
<rect width="32" height="32" fill="white" transform="translate(19 22.353)"/>
</clipPath>
<clipPath id="clip1_2_134">
<rect width="32" height="32" fill="white" transform="translate(19 22.353)"/>
</clipPath>
</defs>
</svg>
