<svg width="70" height="77" viewBox="0 0 70 77" fill="none" xmlns="http://www.w3.org/2000/svg">
<path d="M0 10.353C0 4.83018 4.47715 0.353027 10 0.353027H60C65.5228 0.353027 70 4.83018 70 10.353V66.353C70 71.8759 65.5228 76.353 60 76.353H10C4.47715 76.353 0 71.8759 0 66.353V10.353Z" fill="#FF7171"/>
<g clip-path="url(#clip0_2_119)">
<g clip-path="url(#clip1_2_119)">
<g clip-path="url(#clip2_2_119)">
<path d="M29.25 42.9414V45.853C29.25 50.5057 33.0348 54.353 37.6875 54.353C42.3402 54.353 46.125 50.5057 46.125 45.853V44.8207C48.262 44.3851 49.875 42.4915 49.875 40.228C49.875 37.6435 47.7721 35.5405 45.1875 35.5405C42.603 35.5405 40.5 37.6435 40.5 40.228C40.5 42.4915 42.1131 44.3851 44.25 44.8207V45.853C44.25 49.4712 41.3057 52.478 37.6875 52.478C34.0693 52.478 31.125 49.4712 31.125 45.853V42.9426C34.9511 42.2407 39.3667 37.4898 40.1311 32.9707C40.6323 30.0023 39.3938 27.626 36.75 26.4375V25.1655C36.75 23.6147 35.4884 22.353 33.9375 22.353C32.3866 22.353 31.125 23.6147 31.125 25.1655C31.125 26.7164 32.3866 27.978 33.9375 27.978H35.602C37.7591 28.7767 38.6658 30.3887 38.2817 32.6585C37.6235 36.554 33.2362 41.1655 30.1875 41.1655C26.773 41.1655 22.0271 35.7432 21.9983 31.728C21.9855 29.9383 22.9232 28.6551 24.7479 27.978H26.4375C27.9884 27.978 29.25 26.7164 29.25 25.1655C29.25 23.6147 27.9885 22.353 26.4375 22.353C24.8866 22.353 23.625 23.6147 23.625 25.1655V26.427C21.3698 27.4369 20.1201 29.3293 20.125 31.728C20.1346 36.4289 25.0051 42.155 29.25 42.9414V42.9414ZM44.25 39.2905H46.125V41.1655H44.25V39.2905Z" fill="white"/>
</g>
</g>
</g>
<defs>
<clipPath id="clip0_2_119">
<rect width="32" height="32" fill="white" transform="translate(19 22.353)"/>
</clipPath>
<clipPath id="clip1_2_119">
<rect width="32" height="32" fill="white" transform="translate(19 22.353)"/>
</clipPath>
<clipPath id="clip2_2_119">
<rect width="29.75" height="32" fill="white" transform="translate(20.125 22.353)"/>
</clipPath>
</defs>
</svg>
